<svg
    xmlns="http://www.w3.org/2000/svg"
    viewBox="0 0 1600 1600"
    width="2000"
>
    <!-- Dark background -->
    <rect width="1600" height="1600" fill="none" />

    <!-- Grid -->
    <g fill="none" stroke="#27272a" stroke-width="1">
        <!-- Vertical lines -->
        <line x1="0" y1="0" x2="0" y2="1600" />
        <line x1="100" y1="0" x2="100" y2="1600" />
        <line x1="200" y1="0" x2="200" y2="1600" />
        <line x1="300" y1="0" x2="300" y2="1600" />
        <line x1="400" y1="0" x2="400" y2="1600" />
        <line x1="500" y1="0" x2="500" y2="1600" />
        <line x1="600" y1="0" x2="600" y2="1600" />
        <line x1="700" y1="0" x2="700" y2="1600" />
        <line x1="800" y1="0" x2="800" y2="1600" />
        <line x1="900" y1="0" x2="900" y2="1600" />
        <line x1="1000" y1="0" x2="1000" y2="1600" />
        <line x1="1100" y1="0" x2="1100" y2="1600" />
        <line x1="1200" y1="0" x2="1200" y2="1600" />
        <line x1="1300" y1="0" x2="1300" y2="1600" />
        <line x1="1400" y1="0" x2="1400" y2="1600" />
        <line x1="1500" y1="0" x2="1500" y2="1600" />
        <line x1="1600" y1="0" x2="1600" y2="1600" />

        <!-- Horizontal lines -->
        <line x1="0" y1="0" x2="1600" y2="0" />
        <line x1="0" y1="100" x2="1600" y2="100" />
        <line x1="0" y1="200" x2="1600" y2="200" />
        <line x1="0" y1="300" x2="1600" y2="300" />
        <line x1="0" y1="400" x2="1600" y2="400" />
        <line x1="0" y1="500" x2="1600" y2="500" />
        <line x1="0" y1="600" x2="1600" y2="600" />
        <line x1="0" y1="700" x2="1600" y2="700" />
        <line x1="0" y1="800" x2="1600" y2="800" />
        <line x1="0" y1="900" x2="1600" y2="900" />
        <line x1="0" y1="1000" x2="1600" y2="1000" />
        <line x1="0" y1="1100" x2="1600" y2="1100" />
        <line x1="0" y1="1200" x2="1600" y2="1200" />
        <line x1="0" y1="1300" x2="1600" y2="1300" />
        <line x1="0" y1="1400" x2="1600" y2="1400" />
        <line x1="0" y1="1500" x2="1600" y2="1500" />
        <line x1="0" y1="1600" x2="1600" y2="1600" />
    </g>
</svg>